<?xml version="1.0" encoding="UTF-8" standalone="no"?>
<!-- Created with Inkscape (http://www.inkscape.org/) -->

<svg
   width="1920"
   height="1080"
   viewBox="0 0 508 285.75"
   version="1.1"
   id="svg1075"
   inkscape:version="1.2.2 (b0a8486541, 2022-12-01)"
   sodipodi:docname="desktop-background-admin.svg"
   xml:space="preserve"
   inkscape:export-filename="desktop-background-admin.png"
   inkscape:export-xdpi="96"
   inkscape:export-ydpi="96"
   xmlns:inkscape="http://www.inkscape.org/namespaces/inkscape"
   xmlns:sodipodi="http://sodipodi.sourceforge.net/DTD/sodipodi-0.dtd"
   xmlns="http://www.w3.org/2000/svg"
   xmlns:svg="http://www.w3.org/2000/svg"><sodipodi:namedview
     id="namedview1077"
     pagecolor="#ffffff"
     bordercolor="#666666"
     borderopacity="1.0"
     inkscape:pageshadow="2"
     inkscape:pageopacity="0.0"
     inkscape:pagecheckerboard="0"
     inkscape:document-units="mm"
     showgrid="false"
     fit-margin-top="0"
     fit-margin-left="0"
     fit-margin-right="0"
     fit-margin-bottom="0"
     inkscape:zoom="0.32026164"
     inkscape:cx="224.81619"
     inkscape:cy="810.27501"
     inkscape:window-width="1920"
     inkscape:window-height="1011"
     inkscape:window-x="0"
     inkscape:window-y="0"
     inkscape:window-maximized="1"
     inkscape:current-layer="layer1"
     inkscape:showpageshadow="2"
     inkscape:deskcolor="#d1d1d1"
     showguides="false" /><defs
     id="defs1072"><radialGradient
       id="bg"
       cx="125"
       cy="75"
       r="175"
       fx="125"
       fy="75"
       gradientUnits="userSpaceOnUse"
       gradientTransform="matrix(2.0319999,0,0,1.1429999,24.214001,122.97804)"><stop
         offset="0%"
         style="stop-color:#ff69b4;stop-opacity:0.3"
         id="stop2228" /><stop
         offset="100%"
         style="stop-color:#332e5d;stop-opacity:1"
         id="stop2230" /></radialGradient><mask
       maskUnits="userSpaceOnUse"
       id="mask4576"><rect
         style="opacity:1;fill:#feffff;fill-opacity:1;stroke:none;stroke-width:0.624348;stroke-linecap:round;stroke-opacity:1"
         id="rect4578"
         width="65.607948"
         height="142.41179"
         x="115.24783"
         y="377.29596" /></mask><radialGradient
       id="bg-6"
       cx="125"
       cy="75"
       r="175"
       fx="125"
       fy="75"
       gradientUnits="userSpaceOnUse"
       gradientTransform="matrix(0.26458333,0,0,0.26458333,24.213976,122.9781)"><stop
         offset="0%"
         style="stop-color:#ff69b4;stop-opacity:0.3"
         id="stop2228-7" /><stop
         offset="100%"
         style="stop-color:#332e5d;stop-opacity:1"
         id="stop2230-5" /></radialGradient></defs><g
     inkscape:label="Layer 1"
     inkscape:groupmode="layer"
     id="layer1"
     transform="translate(-24.213974,-122.97811)"><rect
       style="fill:#cd6391;fill-opacity:1;stroke:none;stroke-width:6.0791;stroke-linecap:round"
       id="rect1416"
       width="508"
       height="285.74997"
       x="24.213974"
       y="122.97813" /><rect
       width="508"
       height="285.75"
       fill="url(#bg)"
       id="rect2235"
       x="24.213974"
       y="122.97811"
       style="fill:url(#bg);stroke-width:1.524" /><g
       id="g9242"
       transform="matrix(2.6600001,0,0,2.6600001,277.89172,-256.91732)"><path
         id="path4726"
         style="fill:#e4de82;stroke-width:0.430438"
         d="m 242.53516,575.98242 c -4.43515,0.0927 -8.78609,2.34827 -12.70508,4.62891 -12.78301,6.24089 -26.79359,9.16525 -40.03711,14.13086 -5.48325,2.25441 -11.26677,3.44243 -16.79688,5.2832 -5.75425,1.37781 -11.55331,1.42348 -17.40234,1.93555 -11.85949,0.60071 -41.60951,-1.60557 -52.93555,-4.95313 -2.963838,0.10699 -8.153181,-2.87136 -11.140622,-2.54492 v 79.32617 c 1.16572,0.84494 2.724713,1.37172 4.66211,1.53906 4.956932,1.54505 28.259282,1.7552 33.316402,2.10352 6.10845,0.71072 12.39185,0.1674 18.50782,1.32031 6.34316,0.79356 12.77583,0.81638 19.11132,-0.0664 13.47034,-0.99462 26.39521,-5.19837 38.80469,-10.32032 11.93746,-6.31017 23.1442,-14.76613 30.91406,-25.97265 3.82047,-5.608 6.66746,-11.81079 10.03321,-17.66211 2.51223,-4.2672 3.71188,-10.48546 5.8125,-13.97461 1.64991,-6.28257 2.38982,-13.09357 1.39258,-19.74805 -0.0533,-5.07706 -0.55143,-13.89743 -7.08789,-14.31836 -1.48441,-0.52874 -2.97084,-0.73792 -4.44922,-0.70703 z"
         transform="matrix(0.45326178,0,0,0.45326178,-136.84899,-71.918338)" /><path
         style="fill:#98a1aa;stroke-width:0.195101"
         d="m -50.340442,181.42675 c -0.157879,-0.19727 -0.731565,-0.75517 -1.274856,-1.23976 -1.463472,-1.30536 -2.657275,-2.88249 -3.261701,-4.309 -0.424196,-1.00115 -0.554662,-1.70456 -0.623377,-3.361 -0.09277,-2.23611 0.11077,-3.09815 1.135621,-4.8097 0.596184,-0.99566 2.542085,-2.66564 3.270167,-2.80647 0.296453,-0.0573 1.062175,-0.34812 1.701607,-0.64619 1.761577,-0.82114 3.804064,-1.34466 6.585821,-1.68804 l 2.515771,-0.31055 1.635883,0.43349 c 1.999649,0.52989 3.558924,1.43707 5.566659,3.23868 2.115354,1.89817 3.278159,4.14467 3.534903,6.82929 0.177888,1.86008 -0.179074,3.59603 -0.989672,4.8129 -2.727253,1.72327 -2.974461,20.59141 -1.555083,5.73941 0.177052,-1.6275 0.323092,-3.37293 0.324533,-3.87873 0.0026,-0.9085 -0.01414,-0.93205 -1.38103,-1.94605 -0.761008,-0.56454 -1.475814,-1.17193 -1.588459,-1.34978 -0.163599,-0.25829 0.0614,-0.63263 1.11834,-1.86058 1.510269,-1.75464 1.837905,-1.86162 3.018703,-0.98561 l 0.755206,0.56027 -0.119637,-1.05345 c -0.223362,-1.96678 -0.318382,-2.39275 -0.674485,-3.02372 -0.447274,-0.79252 -0.701519,-0.80348 -0.701519,-0.0303 0,0.37583 -0.161538,0.72341 -0.432495,0.9306 -0.426268,0.32596 -0.456819,0.31028 -2.12249,-1.08886 -0.929496,-0.78078 -1.689995,-1.48764 -1.689995,-1.57082 0,-0.1978 1.304079,-1.8122 1.526451,-1.8897 0.362226,-0.12623 0.145318,-0.55926 -0.463671,-0.92566 -0.438668,-0.26393 -0.598116,-0.30049 -0.515317,-0.11818 0.125526,0.2764 -0.989085,1.71418 -1.525742,1.96812 -0.223377,0.1057 -0.704104,-0.17542 -1.706951,-0.99818 l -1.396004,-1.14532 0.453062,-0.75038 c 0.249185,-0.4127 0.570513,-0.75294 0.714061,-0.75608 0.412162,-0.009 -0.518755,-0.53231 -0.946938,-0.53231 -0.211162,0 -0.383931,0.12278 -0.383931,0.27285 0,0.15007 -0.239724,0.36514 -0.532722,0.47794 -0.448318,0.1726 -0.608053,0.1478 -1.008182,-0.1565 -0.683117,-0.51952 -0.924633,-0.60945 -1.305304,-0.48602 -0.480888,0.15592 -0.423447,0.37614 0.29922,1.1471 0.350211,0.37362 0.636747,0.7665 0.636747,0.87307 0,0.32651 -2.545475,2.71372 -2.893631,2.71372 -0.41584,0 -2.624843,-1.93034 -2.624843,-2.29373 0,-0.15006 0.23878,-0.53735 0.530622,-0.86065 0.291843,-0.3233 0.530623,-0.63355 0.530623,-0.68945 0,-0.5311 -3.332832,0.78642 -3.735754,1.47681 -0.386415,0.66209 -2.630277,2.7257 -2.963797,2.7257 -0.640268,0 -0.266663,-0.75604 0.797339,-1.61353 0.606103,-0.48847 1.044087,-0.93706 0.9733,-0.99687 -0.438078,-0.37016 -2.737165,1.70727 -3.223141,2.91239 -0.396008,0.98202 -0.457064,1.59332 -0.108657,1.08789 0.118987,-0.17262 0.354863,-0.31385 0.524168,-0.31385 0.388863,0 0.385451,0.0703 -0.0369,0.76042 -0.31299,0.51141 -0.3693,0.53487 -0.611644,0.25483 -0.24159,-0.27916 -0.27937,-0.28101 -0.398145,-0.0195 -0.07218,0.15892 -0.127825,1.0692 -0.123667,2.02284 0.01479,3.39416 0.956504,5.2925 3.935574,7.93355 1.041402,0.92324 1.398919,1.3889 1.652295,2.15207 0.177839,0.53565 0.625407,1.86164 0.994595,2.94664 5.167059,9.26817 2.55053,2.61478 -1.811531,-3.76606 z m 13.94913,-17.49084 c -0.589084,-0.45277 -1.535456,-0.72799 -1.535456,-0.44653 0,0.0863 1.92224,0.97036 2.12249,0.97619 0.05837,0.002 -0.205796,-0.23665 -0.587034,-0.52966 z m -10.308414,17.28161 c -0.401403,-0.33917 -0.03197,-1.14739 1.087698,-2.37959 0.666417,-0.73339 1.326721,-1.36434 1.467343,-1.40211 0.270089,-0.0725 2.713665,1.79257 3.0642,2.33881 0.293501,0.45737 0.06594,0.8992 -0.646179,1.25464 -0.471229,0.2352 -1.11383,0.30781 -2.724135,0.30781 -1.159086,0 -2.171104,-0.0538 -2.248927,-0.11956 z m 10.135321,-0.0386 c -0.75473,-0.12798 -1.99911,-0.95458 -1.99911,-1.32795 0,-0.32131 2.054878,-2.62808 2.457343,-2.75857 0.421456,-0.13666 2.818147,1.72409 2.835303,2.20127 0.0075,0.20775 -0.325087,0.75249 -0.739015,1.21054 -0.788541,0.8726 -1.022712,0.93445 -2.554521,0.67471 z m -13.898184,-1.03895 c -0.996439,-0.76065 -1.653974,-1.67237 -1.206109,-1.67237 0.285019,0 2.704982,1.97008 2.704982,2.20211 0,0.3231 -0.710697,0.0719 -1.498873,-0.52974 z m 0.583152,-1.68152 c -0.780461,-0.60426 -1.418169,-1.19239 -1.417131,-1.30695 0.0011,-0.11456 0.490938,-0.69108 1.088669,-1.28116 0.597732,-0.59008 1.228697,-1.25588 1.402143,-1.47955 0.173448,-0.22367 0.503571,-0.40667 0.733609,-0.40667 0.532322,0 2.70623,1.9416 2.710759,2.42108 0.0041,0.43335 -2.315038,3.02434 -2.773833,3.099 -0.178858,0.0291 -0.963755,-0.44149 -1.744216,-1.04575 z m 8.26053,-0.86863 c -0.798676,-0.68005 -1.416943,-1.3217 -1.373926,-1.42588 0.199196,-0.48243 2.449207,-2.71515 2.737458,-2.71642 0.178478,-7.8e-4 0.931226,0.51582 1.672773,1.14801 1.112445,0.94839 1.324512,1.22286 1.212444,1.56922 -0.177278,0.54791 -2.187166,2.66153 -2.530908,2.66153 -0.146135,0 -0.919163,-0.55641 -1.717841,-1.23646 z m -11.947183,-2.03648 c -1.250605,-1.11641 -1.549014,-2.16928 -0.923414,-3.25805 0.436749,-0.76011 1.628909,-2.07736 1.879944,-2.07721 0.28019,1.7e-4 3.221346,2.43021 3.221346,2.66154 0,0.23992 -1.422769,1.87404 -2.405983,2.76338 -0.701909,0.63491 -0.975749,0.62105 -1.771893,-0.0897 z m 7.87158,-1.49072 c -0.747431,-0.64727 -1.358965,-1.28176 -1.358965,-1.40998 0,-0.20686 0.623906,-0.94068 2.040972,-2.40053 l 0.449104,-0.46267 1.514199,1.13708 c 0.878023,0.65935 1.514199,1.28083 1.514199,1.47922 0,0.37227 -2.2511,2.83375 -2.59155,2.83375 -0.114945,0 -0.820529,-0.52959 -1.567959,-1.17687 z m 7.745218,-0.39437 c -1.169443,-0.98812 -1.439184,-1.31481 -1.30892,-1.58524 0.325609,-0.67599 2.495428,-2.94106 2.817385,-2.94106 0.422817,0 3.186067,2.34463 3.175705,2.69459 -0.01172,0.39574 -2.413587,2.94526 -2.840819,3.01546 -0.232888,0.0383 -0.917094,-0.40111 -1.843351,-1.18375 z M -50.184148,170.52 c -0.729606,-0.62208 -1.326556,-1.27008 -1.326556,-1.44 0,-0.37286 2.503371,-2.62814 2.917248,-2.62814 0.405255,0 2.814708,2.13816 2.808086,2.49191 -0.003,0.15832 -0.480525,0.77061 -1.061245,1.36065 -0.580722,0.59004 -1.055856,1.13478 -1.055856,1.21054 0,0.0758 -0.214902,0.13737 -0.47756,0.13692 -0.30376,-5.2e-4 -0.96034,-0.41246 -1.804117,-1.13188 z m 8.164943,-0.44171 c -0.667584,-0.57003 -1.213788,-1.16705 -1.213788,-1.32672 0,-0.39669 2.286087,-2.83772 2.657597,-2.83772 0.398211,0 2.860877,1.95088 2.860877,2.26633 0,0.42601 -2.326136,2.93451 -2.721174,2.93451 -0.203348,0 -0.915929,-0.46638 -1.583512,-1.0364 z"
         id="path4724"
         sodipodi:nodetypes="cssssssscsssccssssscssssssssssscssssssssssssssssssssssssssccsscssssssssssssssssssscssssssssssssscssssccssscssssssssssssssssssssssss" /><path
         style="fill:#464562;stroke-width:0.195101"
         d="m -42.628492,203.43091 c -0.299865,-1.55655 -0.589756,-3.00607 -1.704989,-6.04081 -0.362043,-0.98518 -0.775957,-2.23607 -0.919804,-2.77976 -0.31356,-1.18511 -1.778118,-5.70446 -3.276819,-10.11164 -0.599425,-1.7627 -1.045295,-3.24258 -0.990821,-3.28861 0.05448,-0.046 0.623426,0.008 1.264336,0.12072 1.552291,0.27229 9.021856,0.19996 9.541613,-0.0924 0.295544,-0.16623 0.552987,-0.16083 1.16737,0.0245 0.433514,0.13076 1.284142,0.2413 1.890283,0.24563 1.076187,0.008 1.12575,-0.0153 2.10991,-0.9785 0.554308,-0.5425 1.07491,-0.98636 1.156893,-0.98636 0.358939,0 0.35505,0.75224 -0.02471,4.78077 -0.425676,4.51566 -0.443127,4.85258 -0.448284,8.65529 -0.0017,1.32368 -0.08808,2.84698 -0.191731,3.38512 0.792543,4.53565 -0.621837,6.41156 -9.573247,7.06605 z"
         id="path4720"
         sodipodi:nodetypes="csssscsscsssccc" /><path
         style="fill:#5f6c8e;stroke-width:0.195101"
         d="m -54.555376,225.92095 c -1.738852,-0.54651 -2.536511,-1.60188 -2.523643,-3.33899 0.0096,-1.29082 0.330833,-2.09984 1.331216,-3.35229 0.358938,-0.44938 0.610538,-0.9097 0.559114,-1.02294 -0.05143,-0.11323 -0.632319,-0.34938 -1.290875,-0.52479 -3.877524,-1.03276 -3.899886,-4.49588 -0.04749,-7.35368 2.212195,-1.64106 7.785181,-4.59489 12.232812,-6.48372 0.642053,-0.27267 1.246275,-0.58606 1.342715,-0.69642 0.114984,-0.13157 9.392595,-3.47237 9.336499,-3.29824 0,0 2.156863,-0.10505 0.337356,1.49107 0,0.047 -8.100795,3.07491 -8.947138,3.49484 -9.859323,4.89193 -10.799219,5.40591 -12.327976,6.74157 -2.213431,1.93385 -2.773583,3.03035 -1.892319,3.70423 2.024656,1.54818 8.665902,0.45135 15.077076,-2.49007 0.902431,-0.67525 9.589351,-4.96805 9.596482,-4.81366 0,1.03269 -2.289612,2.83772 -6.772114,5.33882 -4.016288,2.24097 -5.088706,2.754 -7.554693,3.61409 -5.419064,1.89006 -7.125418,2.8456 -8.169505,4.57485 -0.982403,1.62709 -0.09813,2.37011 2.808309,2.35974 5.424734,-0.0194 11.622732,-1.82952 16.292019,-4.75815 2.670944,-1.67525 3.327946,-1.20464 1.060352,0.75953 -1.745475,1.51191 -3.240939,2.41704 -5.423552,3.28261 -1.880446,0.74573 -6.007815,2.0837 -8.053367,2.61066 -1.51315,0.38981 -5.919401,0.49152 -6.971278,0.16092 z m 9.341393,-30.17694 c -0.07783,-0.0658 -0.1415,-0.316 -0.1415,-0.55609 0,-0.2401 -0.295005,-1.29221 -0.655567,-2.33804 -0.36056,-1.04583 -0.923551,-2.75262 -1.251089,-3.79289 -0.327536,-1.04026 -0.897586,-2.77911 -1.266774,-3.86412 -0.369188,-1.085 -0.816756,-2.41099 -0.994595,-2.94664 -0.253376,-0.76317 -0.610893,-1.22883 -1.652295,-2.15207 -2.97907,-2.64105 -3.920774,-4.53939 -3.935574,-7.93355 -0.0042,-0.95364 0.05149,-1.86392 0.123667,-2.02284 0.118775,-0.26153 0.156555,-0.25968 0.398145,0.0195 0.242344,0.28004 0.298654,0.25658 0.611644,-0.25483 0.422351,-0.6901 0.425763,-0.76042 0.0369,-0.76042 -0.169305,0 -0.405181,0.14123 -0.524168,0.31385 -0.348407,0.50543 -0.287351,-0.10587 0.108657,-1.08789 0.485976,-1.20512 2.785063,-3.28255 3.223141,-2.91239 0.07079,0.0598 -0.367197,0.5084 -0.9733,0.99687 -1.064002,0.85749 -1.437607,1.61353 -0.797339,1.61353 0.33352,0 2.577382,-2.06361 2.963797,-2.7257 0.402922,-0.69039 3.735754,-2.00791 3.735754,-1.47681 0,0.0559 -0.23878,0.36615 -0.530623,0.68945 -0.291842,0.3233 -0.530622,0.71059 -0.530622,0.86065 0,0.36339 2.209003,2.29373 2.624843,2.29373 0.348156,0 2.893631,-2.38721 2.893631,-2.71372 0,-0.10657 -0.286536,-0.49945 -0.636747,-0.87307 -0.722667,-0.77096 -0.780108,-0.99118 -0.29922,-1.1471 0.380671,-0.12343 0.622187,-0.0335 1.305304,0.48602 0.400129,0.3043 0.559864,0.3291 1.008182,0.1565 0.292998,-0.1128 0.532722,-0.32787 0.532722,-0.47794 0,-0.15007 0.172769,-0.27285 0.383931,-0.27285 0.428183,0 1.3591,0.5233 0.946938,0.53231 -0.143548,0.003 -0.464876,0.34338 -0.714061,0.75608 l -0.453062,0.75038 1.396004,1.14532 c 1.002847,0.82276 1.483574,1.10388 1.706951,0.99818 0.536657,-0.25394 1.651268,-1.69172 1.525742,-1.96812 -0.0828,-0.18231 0.07665,-0.14575 0.515317,0.11818 0.608989,0.3664 0.825897,0.79943 0.463671,0.92566 -0.222372,0.0775 -1.526451,1.6919 -1.526451,1.8897 0,0.0832 0.760499,0.79004 1.689995,1.57082 1.665671,1.39914 1.696222,1.41482 2.12249,1.08886 0.270957,-0.20719 0.432495,-0.55477 0.432495,-0.9306 0,-0.77322 0.254245,-0.76226 0.701519,0.0303 0.356103,0.63097 0.451123,1.05694 0.674485,3.02372 l 0.119637,1.05345 -0.755206,-0.56027 c -1.180798,-0.87601 -1.508434,-0.76903 -3.018703,0.98561 -1.056936,1.22795 -1.281939,1.60229 -1.11834,1.86058 0.112645,0.17785 0.840532,0.79495 1.617527,1.37134 l 1.412716,1.04799 -0.125369,1.79476 c -0.06895,0.98712 -0.282567,3.40882 -0.474695,5.38155 -0.142809,0.83518 -1.333195,8.35431 -0.608632,3.8558 0.299398,-2.23635 0.895175,-9.57064 0.795303,-9.79055 -0.181923,-0.40057 -0.350328,-0.31357 -1.420606,0.73391 -0.98416,0.9632 -1.033723,0.98618 -2.10991,0.9785 -0.606141,-0.004 -1.456769,-0.11487 -1.890283,-0.24563 -0.614383,-0.18533 -0.871826,-0.19073 -1.16737,-0.0245 -0.519757,0.29235 -7.989322,0.36468 -9.541613,0.0924 -0.64091,-0.11242 -1.20986,-0.16674 -1.264336,-0.12072 -0.05447,0.046 0.391396,1.52591 0.990821,3.28861 2.314019,6.80476 3.674832,11.18133 3.517857,11.31397 -0.03313,0.028 -0.123913,-0.003 -0.201736,-0.0687 z m 3.487319,-14.71474 c 0.712117,-0.35544 0.93968,-0.79727 0.646179,-1.25464 -0.350535,-0.54624 -2.794111,-2.41135 -3.0642,-2.33881 -0.140622,0.0378 -0.800926,0.66872 -1.467343,1.40211 -1.119665,1.2322 -1.489101,2.04042 -1.087698,2.37959 0.07782,0.0658 1.089841,0.11956 2.248927,0.11956 1.610305,0 2.252906,-0.0726 2.724135,-0.30781 z m 7.71678,-0.52501 c 0.413928,-0.45805 0.746484,-1.00279 0.739015,-1.21054 -0.01715,-0.47718 -2.413847,-2.33793 -2.835303,-2.20127 -0.402465,0.13049 -2.457343,2.43726 -2.457343,2.75857 0,0.37337 1.24438,1.19997 1.99911,1.32795 1.531809,0.25974 1.76598,0.19789 2.554521,-0.67471 z m -14.953832,0.1655 c 0,-0.23203 -2.419963,-2.20211 -2.704982,-2.20211 -0.447865,0 0.20967,0.91172 1.206109,1.67237 0.788176,0.60166 1.498873,0.85284 1.498873,0.52974 z m 2.379702,-2.56213 c 0.674306,-0.73904 1.224488,-1.50511 1.222626,-1.70238 -0.0045,-0.47948 -2.178437,-2.42108 -2.710759,-2.42108 -0.230038,0 -0.560161,0.183 -0.733609,0.40667 -0.173446,0.22367 -0.804411,0.88947 -1.402143,1.47955 -0.597731,0.59008 -1.087633,1.1666 -1.088669,1.28116 -0.0029,0.32697 2.798397,2.41176 3.161347,2.3527 0.178858,-0.0291 0.8769,-0.65759 1.551207,-1.39662 z m 8.013342,-0.40217 c 1.582238,-1.66573 1.581911,-1.75109 -0.01193,-3.10988 -0.741547,-0.63219 -1.494295,-1.14879 -1.672773,-1.14801 -0.288253,10e-4 -2.538264,2.23399 -2.73746,2.71642 -0.09647,0.23365 2.723961,2.66234 3.091767,2.66234 0.146138,0 0.744814,-0.50439 1.330394,-1.12087 z m -13.223525,-2.06241 c 0.983214,-0.88934 2.405983,-2.52346 2.405983,-2.76338 0,-0.23133 -2.941156,-2.66137 -3.221346,-2.66154 -0.251035,-1.5e-4 -1.443195,1.3171 -1.879944,2.07721 -0.6256,1.08877 -0.327191,2.14164 0.923414,3.25805 0.796144,0.71071 1.069984,0.72457 1.771893,0.0897 z m 9.067919,-1.64932 c 0.655202,-0.68519 1.191277,-1.39977 1.191277,-1.58794 0,-0.19839 -0.636176,-0.81987 -1.514199,-1.47922 l -1.514199,-1.13708 -0.449104,0.46267 c -1.417066,1.45985 -2.040972,2.19367 -2.040972,2.40053 0,0.27248 2.618628,2.58685 2.926924,2.58685 0.114948,0 0.745071,-0.56061 1.400273,-1.24581 z m 8.222006,-0.54758 c 0.677225,-0.73978 1.234842,-1.46408 1.23915,-1.60956 0.01036,-0.34996 -2.752888,-2.69459 -3.175705,-2.69459 -0.321957,0 -2.491776,2.26507 -2.817385,2.94106 -0.130264,0.27043 0.139477,0.59712 1.30892,1.58524 0.926257,0.78264 1.610463,1.22201 1.843351,1.18375 0.203695,-0.0335 0.924446,-0.66613 1.601669,-1.4059 z m -13.398199,-1.93114 c 0,-0.0758 0.475134,-0.6205 1.055856,-1.21054 0.58072,-0.59004 1.05828,-1.20233 1.061245,-1.36065 0.0066,-0.35375 -2.402831,-2.49191 -2.808086,-2.49191 -0.413877,0 -2.917248,2.25528 -2.917248,2.62814 0,0.46733 2.560606,2.57089 3.130673,2.57188 0.262658,4.4e-4 0.47756,-0.0612 0.47756,-0.13692 z m 9.012229,-1.74358 c 0.646648,-0.73883 1.175723,-1.45486 1.175723,-1.5912 0,-0.31545 -2.462666,-2.26633 -2.860877,-2.26633 -0.37151,0 -2.657597,2.44103 -2.657597,2.83772 0,0.39211 2.333152,2.36312 2.7973,2.36312 0.213917,0 0.865195,-0.5661 1.545451,-1.34331 z m 1.971657,-5.75239 c -1.102808,-0.48505 -1.227521,-0.6159 -0.587034,-0.6159 0.231634,0 0.733072,0.23975 1.114307,0.53277 0.838902,0.64477 0.773206,0.65513 -0.527273,0.0831 z"
         id="path4722"
         sodipodi:nodetypes="ssssssssccsssccssssssssssssssssssssssssssssssssssssssscscssssssssssscsssscsccsscsssssssssssssssssssssssssssssscsssscsssssssssssssscsssssssssssssssssssssssssssss" /></g><path
       style="font-variation-settings:normal;opacity:1;vector-effect:none;fill:#99c45a;fill-opacity:1;stroke:none;stroke-width:0.296136;stroke-linecap:butt;stroke-linejoin:miter;stroke-miterlimit:4;stroke-dasharray:none;stroke-dashoffset:0;stroke-opacity:1;-inkscape-stroke:none;stop-color:#000000;stop-opacity:1"
       d="m 413.08203,258.84496 c -3.44714,-0.63002 -8.94813,-2.27626 -8.94813,-2.67784 0,-0.22873 0.7961,-5.54111 1.1137,-7.43166 0.17863,-1.06336 0.29725,-2.00513 0.2636,-2.09281 -0.0336,-0.0877 -0.57614,-0.4674 -1.20555,-0.84381 -1.84981,-1.10626 -3.13518,-2.05316 -4.50412,-3.31809 l -1.28482,-1.1872 -0.53074,0.23046 c -0.74983,0.3256 -6.32646,2.88006 -7.3391,3.36179 -0.46362,0.22055 -0.90579,0.40105 -0.98261,0.40111 -0.15796,1.1e-4 -1.62249,-2.00473 -2.60507,-3.56618 -0.93368,-1.48373 -1.89506,-3.2638 -2.57651,-4.77057 -0.47873,-1.05853 -0.55843,-1.33466 -0.42257,-1.464 0.19897,-0.18941 2.1463,-1.60663 4.83603,-3.51952 1.06989,-0.76089 2.15741,-1.54695 2.41672,-1.74681 l 0.47146,-0.36338 -0.3025,-1.04048 c -0.50667,-1.74278 -0.86051,-4.08624 -0.93142,-6.16884 l -0.0666,-1.95543 -1.24772,-0.46586 c -1.7479,-0.6526 -7.72403,-2.96906 -7.76913,-3.01146 -0.12166,-0.11439 0.95868,-6.14933 1.28909,-7.20116 0.44401,-1.41338 1.46692,-3.76081 1.63881,-3.76081 0.30112,0 2.53385,0.35775 6.15845,0.98677 1.83867,0.31908 3.39973,0.54512 3.46902,0.5023 0.0693,-0.0428 0.12598,-0.15158 0.12598,-0.24167 0,-0.0901 0.45753,-0.85989 1.01673,-1.71065 0.96798,-1.47267 1.35433,-1.95301 3.38248,-4.20545 l 0.87588,-0.97273 -1.87203,-4.02007 c -1.02962,-2.21103 -1.93932,-4.187 -2.02155,-4.39103 -0.14129,-0.35055 -0.11739,-0.39906 0.43405,-0.88121 1.44141,-1.26028 4.71317,-3.24735 7.21524,-4.38209 2.14234,-0.97161 1.87869,-1.03346 3.14981,0.73891 0.60099,0.83798 1.87727,2.6178 2.83618,3.95516 0.95891,1.33736 1.79394,2.43156 1.85562,2.43156 0.0617,0 0.60821,-0.14376 1.2145,-0.31945 1.49694,-0.4338 3.60938,-0.72759 5.95682,-0.82845 l 1.95703,-0.0841 0.49974,-1.42652 c 0.79475,-2.26864 1.96848,-5.48299 2.42762,-6.64818 l 0.42234,-1.07182 0.46526,0.0798 c 3.98298,0.68277 7.34386,1.60044 9.91552,2.70737 l 0.50212,0.21613 -0.0883,0.80218 c -0.0486,0.44119 -0.25798,1.8526 -0.46537,3.13646 -0.54988,3.4041 -0.90986,5.81072 -0.87239,5.83217 0.018,0.0103 0.32457,0.22174 0.6812,0.46982 0.35663,0.24809 0.91798,0.6074 1.24745,0.79846 0.90785,0.52647 2.27386,1.5949 3.60582,2.82031 0.65898,0.60627 1.24776,1.12043 1.30839,1.14258 0.11701,0.0427 0.49642,-0.12482 3.17552,-1.40241 2.44976,-1.16823 5.37945,-2.46351 5.57201,-2.46351 0.21546,0 1.47728,1.63454 2.65587,3.44038 0.92099,1.41114 2.92097,5.27411 3.05296,5.89679 0.0765,0.36113 -0.40381,0.75124 -5.25058,4.26426 -1.31952,0.95642 -2.44627,1.78049 -2.50388,1.83127 -0.0576,0.0508 0.0116,0.55292 0.15385,1.11584 0.54606,2.16143 0.81257,3.91383 0.88578,5.82429 l 0.0746,1.94776 1.69985,0.62767 c 7.84159,2.89551 7.34107,2.67083 7.34107,3.29535 0,0.62317 -0.44339,3.20002 -0.7299,4.24199 -0.45263,1.6461 -1.13408,3.81292 -1.58419,5.03732 l -0.46927,1.2765 -0.4563,-0.0773 c -4.33469,-0.73458 -9.25643,-1.48963 -9.34663,-1.43388 -0.064,0.0396 -0.33264,0.46324 -0.59701,0.94156 -0.76912,1.39152 -2.22033,3.3713 -3.38,4.61106 -0.59048,0.63126 -1.07359,1.19567 -1.07359,1.25426 0,0.0586 0.51652,1.20528 1.14781,2.54822 0.6313,1.34294 1.36639,2.93775 1.63353,3.54401 0.26714,0.60627 0.65877,1.48133 0.8703,1.94457 l 0.38461,0.84225 -0.36467,0.29955 c -0.92085,0.75641 -3.07164,2.27201 -4.19032,2.9528 -1.11543,0.67881 -5.18125,2.7063 -5.25462,2.6203 -0.0167,-0.0196 -1.29753,-1.81544 -2.84632,-3.99088 -1.54879,-2.17543 -2.86404,-3.97311 -2.92276,-3.99484 -0.0587,-0.0217 -0.88502,0.16276 -1.83621,0.40999 -2.34432,0.60935 -2.45833,0.62584 -4.95482,0.71688 l -2.18793,0.0798 -0.62783,1.81556 c -1.10139,3.18495 -2.79548,7.39068 -2.98619,7.41343 -0.0991,0.0118 -0.90963,-0.11184 -1.8012,-0.27479 z m 9.51106,-24.0423 c 2.30989,-0.62415 4.67379,-1.93079 6.34468,-3.50703 1.68459,-1.58916 2.74819,-3.25913 3.45586,-5.42607 0.64972,-1.98952 0.82687,-3.22649 0.7572,-5.28717 -0.0541,-1.60024 -0.11152,-1.96937 -0.48418,-3.11239 -0.80465,-2.46803 -2.07767,-4.58165 -3.71882,-6.17445 -1.71693,-1.66636 -3.38617,-2.61103 -6.08197,-3.44195 -1.09331,-0.337 -1.30136,-0.35752 -3.62388,-0.35752 -2.32393,0 -2.53032,0.0204 -3.63112,0.35881 -4.83206,1.48549 -8.25758,4.80096 -9.59928,9.2909 -1.33068,4.45306 -0.76076,8.18031 1.85183,12.11083 1.94487,2.92597 5.4407,5.0689 9.43332,5.78259 1.15127,0.2058 4.15595,0.0716 5.29636,-0.23655 z m -4.96705,-1.71895 c -2.54642,-0.39059 -5.7217,-2.11787 -7.14568,-3.88708 -2.21306,-2.7496 -2.99066,-4.71781 -2.99343,-7.57677 -10e-4,-1.32522 0.0584,-1.78719 0.40228,-3.1124 0.83281,-3.20959 2.28993,-5.38858 4.67409,-6.98969 3.35056,-2.25009 6.62271,-2.71412 10.56917,-1.49884 3.49464,1.07615 6.3162,3.95078 7.575,7.71747 0.74082,2.21674 0.80629,4.38399 0.20354,6.73816 -0.24771,0.9675 -1.04894,2.66571 -1.72499,3.65613 -0.58602,0.85852 -2.13012,2.38486 -3.0372,3.00226 -0.95478,0.64987 -2.6529,1.41556 -3.79445,1.71094 -1.21403,0.31413 -3.49094,0.42962 -4.72833,0.23982 z m 3.65542,-3.0293 c 3.06366,-0.64926 5.9841,-3.45229 6.76112,-6.48931 0.64798,-2.53268 0.22728,-4.93168 -1.25618,-7.16311 -1.22662,-1.8451 -3.05643,-3.14509 -5.27497,-3.7476 -1.16027,-0.3151 -3.30053,-0.31139 -4.34438,0.008 -2.93578,0.89699 -5.18516,2.96358 -6.23983,5.73278 -0.46193,1.21288 -0.57293,3.32305 -0.25093,4.77039 0.56427,2.53627 2.51983,5.09024 4.6752,6.10584 1.84973,0.87158 4.10694,1.1698 5.92997,0.78346 z m 33.73387,-25.84239 c -0.63637,-0.045 -0.67102,-0.0666 -0.74097,-0.46233 -0.0877,-0.4961 -0.39977,-3.29455 -0.61455,-5.51077 -0.1183,-1.22055 -0.20326,-1.61988 -0.36253,-1.70383 -0.11441,-0.0603 -0.67488,-0.2387 -1.24549,-0.39643 -1.30329,-0.36025 -2.72852,-0.94564 -3.85409,-1.58301 -0.47926,-0.2714 -0.93406,-0.49344 -1.01068,-0.49344 -0.0766,0 -0.67656,0.45915 -1.33322,1.02034 -2.26853,1.93869 -4.40546,3.64825 -4.56029,3.64825 -0.50208,0 -4.27148,-3.60053 -5.54848,-5.2999 l -0.61511,-0.81855 0.48425,-0.60433 c 0.26634,-0.33237 1.31637,-1.61026 2.33341,-2.83975 1.01704,-1.22948 1.84916,-2.28519 1.84916,-2.34601 0,-0.0608 -0.28997,-0.59306 -0.64438,-1.18275 -0.68163,-1.13412 -1.16381,-2.2957 -1.76116,-4.24261 l -0.36461,-1.18835 -0.52775,-0.0714 c -0.29026,-0.0393 -1.92832,-0.19796 -3.64014,-0.35261 -1.71182,-0.15464 -3.13057,-0.29647 -3.15279,-0.31518 -0.10285,-0.0866 -0.40036,-2.48141 -0.47507,-3.82418 -0.0821,-1.47448 0.0914,-3.9979 0.31524,-4.58669 0.13042,-0.34302 0.003,-0.32047 4.09072,-0.72791 1.42651,-0.14221 2.7729,-0.28869 2.99197,-0.32551 0.38642,-0.0649 0.41692,-0.12298 1.02099,-1.94255 0.38593,-1.16251 0.88778,-2.34621 1.31998,-3.11339 0.38353,-0.68078 0.69732,-1.29868 0.69732,-1.37311 0,-0.0744 -0.8325,-1.13832 -1.85001,-2.36419 -2.73032,-3.28944 -2.84529,-3.44147 -2.73928,-3.62223 0.28041,-0.4781 2.35883,-2.88045 3.18315,-3.67926 1.3872,-1.34427 2.72302,-2.39707 2.88725,-2.27553 0.12966,0.096 3.76645,3.05854 5.16101,4.20422 l 0.61186,0.50267 1.72975,-0.84355 c 2.09642,-1.02236 2.86443,-1.33254 4.04942,-1.63543 l 0.90778,-0.23205 0.15939,-2.24598 c 0.18875,-2.6598 0.47929,-5.02422 0.63617,-5.17719 0.0617,-0.0602 0.84169,-0.17976 1.73326,-0.26574 2.13328,-0.20572 6.50655,-0.0127 6.82024,0.30094 0.10062,0.10061 0.27421,1.44706 0.61216,4.74815 l 0.28374,2.77156 1.22348,0.3621 c 0.67291,0.19915 2.06075,0.78299 3.08408,1.29741 1.66014,0.83454 1.88461,0.91524 2.08344,0.74895 0.12256,-0.1025 0.60216,-0.51049 1.06578,-0.90665 1.64876,-1.40884 4.43315,-3.60833 4.56787,-3.60833 0.62423,0 6.32933,5.64358 6.16994,6.10341 -0.0214,0.0618 -1.04656,1.3376 -2.27807,2.83505 -1.23151,1.49744 -2.2711,2.80599 -2.31021,2.90789 -0.0391,0.1019 0.24511,0.81912 0.63157,1.59381 0.67205,1.34717 1.35504,3.12444 1.64715,4.28617 0.0816,0.32476 0.22674,0.56785 0.36067,0.60429 0.12323,0.0335 1.77052,0.19289 3.66065,0.35415 1.93612,0.16519 3.50795,0.35691 3.60001,0.43912 0.30002,0.2679 0.48993,4.066 0.32001,6.40018 -0.0821,1.1283 -0.18287,2.13887 -0.22388,2.24572 -0.0592,0.15426 -0.76133,0.25577 -3.40912,0.49291 -4.61702,0.4135 -4.16274,0.26183 -4.50164,1.50297 -0.35329,1.29385 -0.9684,2.82556 -1.62993,4.05874 l -0.50949,0.94975 1.72144,2.03296 c 2.62489,3.09991 3.0764,3.66301 3.0764,3.83675 0,0.40382 -3.81496,4.59519 -4.9928,5.48542 -0.42795,0.32346 -0.85007,0.61607 -0.93805,0.65025 -0.17736,0.0689 -2.04134,-1.35599 -4.46356,-3.41213 l -1.58458,-1.34509 -0.39739,0.26235 c -0.97245,0.64199 -2.99099,1.55949 -4.39558,1.99797 -0.84088,0.2625 -1.55064,0.54588 -1.57723,0.62975 -0.0266,0.0839 -0.19839,1.75461 -0.38179,3.71278 -0.1834,1.95817 -0.37699,3.60131 -0.4302,3.65142 -0.32617,0.30714 -5.22269,0.47769 -8.02659,0.27958 z m 5.70363,-18.63586 c 3.77489,-0.72225 6.92978,-3.5188 8.20207,-7.27045 0.28954,-0.85378 0.36284,-1.33862 0.41397,-2.73844 0.0725,-1.98484 -0.0825,-3.07256 -0.63465,-4.45295 -0.5989,-1.4973 -1.23075,-2.43284 -2.5064,-3.71108 -2.36796,-2.37276 -4.84696,-3.31159 -8.24158,-3.12118 -2.92493,0.16406 -5.02562,1.15791 -7.07238,3.34598 -1.44573,1.54553 -2.20993,2.94414 -2.67421,4.89422 -0.22185,0.93182 -0.25531,1.40231 -0.20382,2.86559 0.0706,2.00561 0.26425,2.84286 1.0052,4.3455 1.21545,2.46492 3.49202,4.54121 5.91067,5.39069 1.84261,0.64715 3.93108,0.80992 5.80113,0.45212 z m -3.67437,-1.4515 c -3.32573,-0.63838 -6.44094,-3.63184 -7.24956,-6.96622 -1.12769,-4.65006 1.5697,-9.43077 6.17604,-10.9461 0.85309,-0.28064 1.25871,-0.33348 2.62972,-0.34258 1.87343,-0.0125 2.8192,0.18926 4.18587,0.89274 1.96778,1.0129 3.25672,2.29607 4.16994,4.15128 0.71662,1.45581 0.9066,2.33753 0.89417,4.14986 -0.019,2.76168 -0.72808,4.41617 -2.7522,6.4212 -2.00004,1.98118 -3.39928,2.5973 -6.04389,2.66127 -0.92724,0.0225 -1.83178,0.0128 -2.01009,-0.0215 z m 3.49754,-2.46982 c 0.97542,-0.26913 1.61702,-0.61295 2.55143,-1.36726 1.2579,-1.01545 2.00379,-2.20795 2.32298,-3.71392 0.62369,-2.94253 -0.45533,-5.71393 -2.826,-7.25849 -1.11385,-0.72571 -2.14828,-1.06909 -3.47102,-1.15224 -3.29013,-0.20681 -6.18654,1.89329 -7.00051,5.07585 -0.63523,2.48373 -0.008,4.83348 1.76404,6.60521 1.82603,1.82603 4.23238,2.48041 6.65908,1.81085 z"
       id="path372" /><path
       style="font-variation-settings:normal;opacity:1;vector-effect:none;fill:#99c45a;fill-opacity:1;stroke:none;stroke-width:0.296136;stroke-linecap:butt;stroke-linejoin:miter;stroke-miterlimit:4;stroke-dasharray:none;stroke-dashoffset:0;stroke-opacity:1;-inkscape-stroke:none;stop-color:#000000;stop-opacity:1"
       d="m 473.83363,264.3512 c -0.13281,-0.21117 -0.77169,-1.20775 -1.41973,-2.21462 -6.90159,-10.72305 -12.27764,-19.12554 -12.27764,-19.18929 0,-0.0716 0.51185,-0.48093 1.21653,-0.97279 l 0.27886,-0.19465 0.15739,0.42217 c 0.5727,1.53622 2.57594,5.29856 3.81283,7.16098 1.10079,1.65749 1.47749,2.11992 1.88928,2.31926 1.46279,0.70812 3.02782,-0.8765 2.26735,-2.29573 -0.11052,-0.20624 -0.52622,-0.84767 -0.92379,-1.42542 -0.39757,-0.57774 -0.98337,-1.49248 -1.30179,-2.03276 -0.65085,-1.10435 -1.65966,-2.98201 -1.54776,-2.88078 0.0402,0.0364 2.97834,4.43673 6.52912,9.77852 l 6.45598,9.71235 -0.45601,0.0589 c -0.45929,0.0593 -1.88365,0.72179 -3.61702,1.68225 l -0.82213,0.45555 z m 22.69299,-0.13065 c -1.62363,-0.90234 -3.01846,-1.54594 -3.50074,-1.61531 l -0.46449,-0.0668 6.45478,-9.71119 c 3.55013,-5.34115 6.48765,-9.74148 6.52782,-9.77852 0.11196,-0.10319 -0.89751,1.77659 -1.5464,2.87962 -0.31783,0.54028 -0.90315,1.45502 -1.30072,2.03276 -0.94178,1.36858 -1.12515,1.7215 -1.12275,2.16101 0.007,1.34334 1.54889,2.20088 2.63435,1.46542 0.40362,-0.27348 1.51335,-1.81906 2.59549,-3.61489 0.81972,-1.36033 2.61762,-4.88778 2.94122,-5.77063 l 0.15475,-0.42217 0.27886,0.19465 c 0.70072,0.48909 1.21653,0.90096 1.21653,0.97137 0,0.0423 -1.80108,2.88063 -4.00242,6.30735 -2.20133,3.42672 -5.30195,8.25977 -6.89027,10.74012 -1.58832,2.48035 -2.93176,4.55783 -2.98543,4.61662 -0.0744,0.0815 -0.30982,-0.0111 -0.99058,-0.38941 z m -24.59446,-0.11739 c -0.65861,-0.23904 -1.35765,-0.54824 -1.55342,-0.68712 -0.26993,-0.19148 -0.67273,-0.75965 -1.66679,-2.35108 -3.60868,-5.77734 -8.39014,-13.47819 -8.53975,-13.75384 -0.14255,-0.26264 -0.17365,-0.54782 -0.19945,-1.82928 -0.0168,-0.83496 -0.0123,-1.49802 0.0101,-1.47347 0.0304,0.0334 9.4779,14.74337 12.77557,19.89191 0.22808,0.35609 0.40491,0.6452 0.39295,0.64247 -0.012,-0.003 -0.5606,-0.20055 -1.21921,-0.43959 z m 27.12951,-0.6549 c 1.01325,-1.58756 10.96223,-17.08302 11.30612,-17.60921 0.1605,-0.24558 0.49754,-0.76799 0.74896,-1.16092 l 0.45715,-0.71441 -3.3e-4,1.33952 c -2.7e-4,0.73674 -0.041,1.48539 -0.0905,1.66367 -0.0495,0.17828 -1.0997,1.94645 -2.33372,3.92927 -1.23407,1.98281 -3.39141,5.45366 -4.79412,7.71299 -1.40271,2.25933 -2.64918,4.24046 -2.76993,4.40252 -0.30342,0.4072 -0.76509,0.65602 -2.08443,1.12338 l -1.13375,0.40162 z m -20.17679,-2.22688 c -0.55986,-0.84733 -4.05292,-6.10386 -7.76236,-11.68117 -5.99041,-9.00686 -7.057,-10.68414 -7.057,-11.09762 0,-0.0586 1.03419,-0.86393 1.10949,-0.86393 0.0283,0 0.0517,0.0703 0.0519,0.15628 0.001,0.46423 0.4567,1.23245 3.40936,5.75361 3.86297,5.91504 4.9878,7.63927 8.64079,13.24528 2.76599,4.24481 3.12268,4.74296 3.59944,5.02703 0.13507,0.0805 0.24551,0.1678 0.24542,0.19405 -8e-5,0.0262 -0.19097,0.1661 -0.42418,0.31079 -0.23321,0.14469 -0.50748,0.31555 -0.60949,0.37967 -0.17555,0.11037 -0.23987,0.0343 -1.2034,-1.42399 z m 12.14639,1.16894 c -0.72303,-0.45489 -0.69814,-0.42718 -0.48889,-0.54427 0.498,-0.2787 1.10714,-1.12504 3.96868,-5.51407 1.71318,-2.6277 3.53712,-5.4206 4.05318,-6.20646 3.92219,-5.97268 7.43538,-11.39996 7.57269,-11.69849 0.0904,-0.19646 0.16517,-0.46772 0.16625,-0.60279 9.1e-4,-0.13507 0.0251,-0.24558 0.0534,-0.24558 0.0847,0 1.10949,0.80908 1.10944,0.87591 -2.7e-4,0.30806 -0.57996,1.33139 -1.81374,3.20155 -1.38618,2.10114 -13.9885,21.04052 -14.02612,21.07912 -0.01,0.01 -0.27745,-0.14521 -0.59488,-0.34492 z m -9.03372,-0.82091 c -0.57232,-0.15995 -1.07931,-0.51302 -1.39345,-0.97039 -0.23566,-0.34311 -7.52986,-11.50427 -10.9301,-16.7246 -0.7358,-1.12966 -1.83662,-2.81746 -2.44626,-3.75066 -1.31164,-2.00776 -1.41011,-2.2289 -1.3599,-3.05389 0.0903,-1.48395 1.15353,-2.41897 2.65419,-2.33417 0.84789,0.0479 1.37087,0.33435 1.8839,1.03181 0.22102,0.30048 1.9683,2.9507 3.88284,5.88939 1.91453,2.93869 4.04671,6.20706 4.73817,7.26306 5.66264,8.64799 5.9288,9.0696 6.06754,9.61115 0.30196,1.17866 -0.28183,2.39494 -1.38262,2.8806 -0.54353,0.2398 -1.20339,0.3005 -1.71431,0.1577 z m 6.33276,0.0274 c -1.04882,-0.26015 -1.73939,-0.9953 -1.94288,-2.06832 -0.14745,-0.77745 0.051,-1.31291 1.06353,-2.86889 8.71459,-13.3927 13.65254,-20.90137 13.96201,-21.23074 0.63301,-0.67372 1.71584,-0.8969 2.70929,-0.5584 0.56596,0.19284 1.21809,0.85009 1.41402,1.42511 0.19498,0.57223 0.18223,1.41294 -0.0284,1.87696 -0.32759,0.72146 -14.75514,22.71539 -15.04669,22.93777 -0.59203,0.45156 -1.46663,0.65125 -2.13081,0.48651 z m -20.29866,-10.4458 c -0.40024,-0.0862 -0.44751,-0.12778 -1.01681,-0.8956 -2.74377,-3.70052 -5.31659,-9.23367 -6.513,-14.00696 -0.71026,-2.83371 -0.93846,-4.71609 -0.93759,-7.73391 9.1e-4,-3.18636 0.2854,-5.40879 1.02859,-8.03532 0.35053,-1.23878 1.18752,-3.47966 1.38042,-3.69577 0.0256,-0.0287 0.34267,0.0955 1.66275,0.65093 l 0.32954,0.13866 -0.3192,0.69088 c -0.75851,1.64168 -1.45891,4.21503 -1.76912,6.49995 -0.2029,1.49443 -0.27407,4.62935 -0.13894,6.12016 0.54404,6.00246 3.13948,12.73295 6.97228,18.08055 0.58437,0.81532 0.68992,1.14228 0.50869,1.57585 -0.20906,0.50014 -0.64926,0.72646 -1.18761,0.61058 z m 34.9922,-0.003 c -0.3733,-0.0802 -0.55636,-0.23651 -0.71153,-0.60772 -0.18605,-0.44511 -0.0744,-0.75983 0.60964,-1.718 0.33632,-0.4711 0.99052,-1.48409 1.45378,-2.25108 3.08351,-5.10517 4.97339,-10.59393 5.41783,-15.73498 0.13145,-1.52046 0.0598,-4.65242 -0.13964,-6.10635 -0.31003,-2.2599 -1.01375,-4.83212 -1.7695,-6.46783 l -0.31011,-0.67121 0.504,-0.22262 c 1.02138,-0.45115 1.44786,-0.62047 1.4781,-0.58681 0.017,0.019 0.15327,0.31578 0.30272,0.6596 2.04456,4.70346 2.66552,10.63256 1.70685,16.29752 -0.85232,5.03653 -3.154,10.67526 -6.288,15.40451 -1.26282,1.90562 -1.54556,2.15712 -2.25414,2.00497 z m -39.67274,-34.54364 c -0.41748,-0.18394 -0.82797,-0.36052 -0.91218,-0.3924 -0.1339,-0.0507 -0.10128,-0.15091 0.25994,-0.7987 1.73346,-3.10867 4.26313,-6.02302 7.03896,-8.10938 3.50813,-2.63677 7.42386,-4.20309 12.19803,-4.87932 1.3972,-0.1979 5.87083,-0.22758 7.31269,-0.0485 4.03075,0.50058 7.67773,1.76349 10.8491,3.75692 3.47955,2.18713 6.66958,5.5762 8.73478,9.2798 0.40786,0.73143 0.41043,0.74117 0.21529,0.81756 -0.10862,0.0425 -0.53258,0.22178 -0.94214,0.39834 -0.40956,0.17657 -0.77857,0.32103 -0.82002,0.32103 -0.0415,0 -0.10034,-0.0787 -0.13086,-0.17482 -0.1544,-0.48646 -1.72868,-2.66755 -2.52192,-3.494 -3.30621,-3.44459 -7.34398,-5.12795 -13.73215,-5.72495 -1.6927,-0.15819 -8.57698,-0.15819 -10.26968,0 -6.35803,0.59419 -10.41034,2.27423 -13.68055,5.67183 -0.83955,0.87226 -2.41278,3.04066 -2.57353,3.54712 -0.0735,0.23144 -0.13765,0.22077 -1.02576,-0.17051 z"
       id="path386" /></g></svg>
