<svg xmlns="http://www.w3.org/2000/svg" viewBox="0 0 1280 720" role="img" aria-label="BOKU WISO XMAS Karaoke Cover">
  <defs>
    <linearGradient id="bg" x1="0%" y1="0%" x2="100%" y2="100%">
      <stop offset="0%" stop-color="#0b0b0b" />
      <stop offset="50%" stop-color="#0d0d0d" />
      <stop offset="100%" stop-color="#0b0b0b" />
    </linearGradient>
    <radialGradient id="halo" cx="50%" cy="40%" r="55%">
      <stop offset="0%" stop-color="rgba(0,170,90,0.35)" />
      <stop offset="70%" stop-color="rgba(0,170,90,0.06)" />
      <stop offset="100%" stop-color="rgba(0,170,90,0)" />
    </radialGradient>
    <pattern id="snow" x="0" y="0" width="120" height="120" patternUnits="userSpaceOnUse">
      <circle cx="20" cy="30" r="2" fill="rgba(255,255,255,0.4)" />
      <circle cx="70" cy="80" r="1.8" fill="rgba(255,255,255,0.35)" />
      <circle cx="110" cy="25" r="1.5" fill="rgba(255,255,255,0.3)" />
      <circle cx="50" cy="10" r="1.2" fill="rgba(255,255,255,0.4)" />
    </pattern>
  </defs>
  <rect width="1280" height="720" fill="url(#bg)" />
  <rect width="1280" height="720" fill="url(#halo)" />
  <rect width="1280" height="720" fill="url(#snow)" />

  <circle cx="640" cy="320" r="170" fill="rgba(11,11,11,0.85)" stroke="#00aa5a" stroke-width="6" />
  <circle cx="640" cy="320" r="155" fill="none" stroke="#00aa5a" stroke-width="6" />
  <text x="640" y="320" text-anchor="middle" dominant-baseline="middle" font-family="Work Sans, Arial, sans-serif" font-size="130" fill="#ffffff" letter-spacing="6">BOKU</text>
  <text x="640" y="400" text-anchor="middle" font-family="Work Sans, Arial, sans-serif" font-size="40" fill="#00aa5a" letter-spacing="4">WISO XMAS KARAOKE</text>

  <g fill="none" stroke="#00aa5a" stroke-width="3" stroke-linecap="round">
    <path d="M180 140 l24 28 l-18 0 l24 28" />
    <path d="M1080 160 l-24 28 l18 0 l-24 28" />
    <path d="M260 560 l20 -22 l-14 0 l20 -22" />
    <path d="M1040 540 l-20 22 l14 0 l-20 22" />
  </g>
</svg>
