<?xml version="1.0" encoding="UTF-8" standalone="no"?>
<!-- Created with Inkscape (http://www.inkscape.org/) -->

<svg
   width="66.145836mm"
   height="66.145836mm"
   viewBox="0 0 66.145836 66.145836"
   version="1.1"
   id="svg1075"
   inkscape:version="1.1.2 (0a00cf5339, 2022-02-04)"
   sodipodi:docname="cover_fallback.svg"
   xmlns:inkscape="http://www.inkscape.org/namespaces/inkscape"
   xmlns:sodipodi="http://sodipodi.sourceforge.net/DTD/sodipodi-0.dtd"
   xmlns="http://www.w3.org/2000/svg"
   xmlns:svg="http://www.w3.org/2000/svg">
  <sodipodi:namedview
     id="namedview1077"
     pagecolor="#ffffff"
     bordercolor="#666666"
     borderopacity="1.0"
     inkscape:pageshadow="2"
     inkscape:pageopacity="0.0"
     inkscape:pagecheckerboard="0"
     inkscape:document-units="mm"
     showgrid="false"
     fit-margin-top="0"
     fit-margin-left="0"
     fit-margin-right="0"
     fit-margin-bottom="0"
     inkscape:zoom="1.8116734"
     inkscape:cx="234.58974"
     inkscape:cy="195.39945"
     inkscape:window-width="1920"
     inkscape:window-height="1131"
     inkscape:window-x="0"
     inkscape:window-y="32"
     inkscape:window-maximized="1"
     inkscape:current-layer="layer1" />
  <defs
     id="defs1072">
    <radialGradient
       id="bg"
       cx="125"
       cy="75"
       r="175"
       fx="125"
       fy="75"
       gradientUnits="userSpaceOnUse"
       gradientTransform="matrix(0.26458333,0,0,0.26458333,24.213976,122.9781)">
      <stop
         offset="0%"
         style="stop-color:#ff69b4;stop-opacity:0.3"
         id="stop2228" />
      <stop
         offset="100%"
         style="stop-color:#332e5d;stop-opacity:1"
         id="stop2230" />
    </radialGradient>
    <mask
       maskUnits="userSpaceOnUse"
       id="mask4576">
      <rect
         style="opacity:1;fill:#feffff;fill-opacity:1;stroke:none;stroke-width:0.624348;stroke-linecap:round;stroke-opacity:1"
         id="rect4578"
         width="65.607948"
         height="142.41179"
         x="115.24783"
         y="377.29596" />
    </mask>
    <radialGradient
       id="bg-6"
       cx="125"
       cy="75"
       r="175"
       fx="125"
       fy="75"
       gradientUnits="userSpaceOnUse"
       gradientTransform="matrix(0.26458333,0,0,0.26458333,24.213976,122.9781)">
      <stop
         offset="0%"
         style="stop-color:#ff69b4;stop-opacity:0.3"
         id="stop2228-7" />
      <stop
         offset="100%"
         style="stop-color:#332e5d;stop-opacity:1"
         id="stop2230-5" />
    </radialGradient>
  </defs>
  <g
     inkscape:label="Layer 1"
     inkscape:groupmode="layer"
     id="layer1"
     transform="translate(-24.213974,-122.97811)">
    <rect
       style="fill:#cd6391;fill-opacity:1;stroke:none;stroke-width:1.0554;stroke-linecap:round"
       id="rect1416"
       width="66.145836"
       height="66.145828"
       x="24.213974"
       y="122.97811" />
    <rect
       width="66.145836"
       height="66.145836"
       fill="url(#bg)"
       id="rect2235"
       x="24.213974"
       y="122.97811"
       style="fill:url(#bg);stroke-width:0.264583" />
    <g
       id="g9242"
       transform="matrix(0.58373184,0,0,0.58373184,79.883115,41.981024)">
      <path
         id="path4726"
         style="fill:#e4de82;stroke-width:0.430438"
         d="m 242.53516,575.98242 c -4.43515,0.0927 -8.78609,2.34827 -12.70508,4.62891 -12.78301,6.24089 -26.79359,9.16525 -40.03711,14.13086 -5.48325,2.25441 -11.26677,3.44243 -16.79688,5.2832 -5.75425,1.37781 -11.55331,1.42348 -17.40234,1.93555 -11.85949,0.60071 -41.60951,-1.60557 -52.93555,-4.95313 -2.963838,0.10699 -8.153181,-2.87136 -11.140622,-2.54492 v 79.32617 c 1.16572,0.84494 2.724713,1.37172 4.66211,1.53906 4.956932,1.54505 28.259282,1.7552 33.316402,2.10352 6.10845,0.71072 12.39185,0.1674 18.50782,1.32031 6.34316,0.79356 12.77583,0.81638 19.11132,-0.0664 13.47034,-0.99462 26.39521,-5.19837 38.80469,-10.32032 11.93746,-6.31017 23.1442,-14.76613 30.91406,-25.97265 3.82047,-5.608 6.66746,-11.81079 10.03321,-17.66211 2.51223,-4.2672 3.71188,-10.48546 5.8125,-13.97461 1.64991,-6.28257 2.38982,-13.09357 1.39258,-19.74805 -0.0533,-5.07706 -0.55143,-13.89743 -7.08789,-14.31836 -1.48441,-0.52874 -2.97084,-0.73792 -4.44922,-0.70703 z"
         transform="matrix(0.45326178,0,0,0.45326178,-136.84899,-71.918338)" />
      <path
         style="fill:#98a1aa;stroke-width:0.195101"
         d="m -50.340442,181.42675 c -0.157879,-0.19727 -0.731565,-0.75517 -1.274856,-1.23976 -1.463472,-1.30536 -2.657275,-2.88249 -3.261701,-4.309 -0.424196,-1.00115 -0.554662,-1.70456 -0.623377,-3.361 -0.09277,-2.23611 0.11077,-3.09815 1.135621,-4.8097 0.596184,-0.99566 2.542085,-2.66564 3.270167,-2.80647 0.296453,-0.0573 1.062175,-0.34812 1.701607,-0.64619 1.761577,-0.82114 3.804064,-1.34466 6.585821,-1.68804 l 2.515771,-0.31055 1.635883,0.43349 c 1.999649,0.52989 3.558924,1.43707 5.566659,3.23868 2.115354,1.89817 3.278159,4.14467 3.534903,6.82929 0.177888,1.86008 -0.179074,3.59603 -0.989672,4.8129 -2.727253,1.72327 -2.974461,20.59141 -1.555083,5.73941 0.177052,-1.6275 0.323092,-3.37293 0.324533,-3.87873 0.0026,-0.9085 -0.01414,-0.93205 -1.38103,-1.94605 -0.761008,-0.56454 -1.475814,-1.17193 -1.588459,-1.34978 -0.163599,-0.25829 0.0614,-0.63263 1.11834,-1.86058 1.510269,-1.75464 1.837905,-1.86162 3.018703,-0.98561 l 0.755206,0.56027 -0.119637,-1.05345 c -0.223362,-1.96678 -0.318382,-2.39275 -0.674485,-3.02372 -0.447274,-0.79252 -0.701519,-0.80348 -0.701519,-0.0303 0,0.37583 -0.161538,0.72341 -0.432495,0.9306 -0.426268,0.32596 -0.456819,0.31028 -2.12249,-1.08886 -0.929496,-0.78078 -1.689995,-1.48764 -1.689995,-1.57082 0,-0.1978 1.304079,-1.8122 1.526451,-1.8897 0.362226,-0.12623 0.145318,-0.55926 -0.463671,-0.92566 -0.438668,-0.26393 -0.598116,-0.30049 -0.515317,-0.11818 0.125526,0.2764 -0.989085,1.71418 -1.525742,1.96812 -0.223377,0.1057 -0.704104,-0.17542 -1.706951,-0.99818 l -1.396004,-1.14532 0.453062,-0.75038 c 0.249185,-0.4127 0.570513,-0.75294 0.714061,-0.75608 0.412162,-0.009 -0.518755,-0.53231 -0.946938,-0.53231 -0.211162,0 -0.383931,0.12278 -0.383931,0.27285 0,0.15007 -0.239724,0.36514 -0.532722,0.47794 -0.448318,0.1726 -0.608053,0.1478 -1.008182,-0.1565 -0.683117,-0.51952 -0.924633,-0.60945 -1.305304,-0.48602 -0.480888,0.15592 -0.423447,0.37614 0.29922,1.1471 0.350211,0.37362 0.636747,0.7665 0.636747,0.87307 0,0.32651 -2.545475,2.71372 -2.893631,2.71372 -0.41584,0 -2.624843,-1.93034 -2.624843,-2.29373 0,-0.15006 0.23878,-0.53735 0.530622,-0.86065 0.291843,-0.3233 0.530623,-0.63355 0.530623,-0.68945 0,-0.5311 -3.332832,0.78642 -3.735754,1.47681 -0.386415,0.66209 -2.630277,2.7257 -2.963797,2.7257 -0.640268,0 -0.266663,-0.75604 0.797339,-1.61353 0.606103,-0.48847 1.044087,-0.93706 0.9733,-0.99687 -0.438078,-0.37016 -2.737165,1.70727 -3.223141,2.91239 -0.396008,0.98202 -0.457064,1.59332 -0.108657,1.08789 0.118987,-0.17262 0.354863,-0.31385 0.524168,-0.31385 0.388863,0 0.385451,0.0703 -0.0369,0.76042 -0.31299,0.51141 -0.3693,0.53487 -0.611644,0.25483 -0.24159,-0.27916 -0.27937,-0.28101 -0.398145,-0.0195 -0.07218,0.15892 -0.127825,1.0692 -0.123667,2.02284 0.01479,3.39416 0.956504,5.2925 3.935574,7.93355 1.041402,0.92324 1.398919,1.3889 1.652295,2.15207 0.177839,0.53565 0.625407,1.86164 0.994595,2.94664 5.167059,9.26817 2.55053,2.61478 -1.811531,-3.76606 z m 13.94913,-17.49084 c -0.589084,-0.45277 -1.535456,-0.72799 -1.535456,-0.44653 0,0.0863 1.92224,0.97036 2.12249,0.97619 0.05837,0.002 -0.205796,-0.23665 -0.587034,-0.52966 z m -10.308414,17.28161 c -0.401403,-0.33917 -0.03197,-1.14739 1.087698,-2.37959 0.666417,-0.73339 1.326721,-1.36434 1.467343,-1.40211 0.270089,-0.0725 2.713665,1.79257 3.0642,2.33881 0.293501,0.45737 0.06594,0.8992 -0.646179,1.25464 -0.471229,0.2352 -1.11383,0.30781 -2.724135,0.30781 -1.159086,0 -2.171104,-0.0538 -2.248927,-0.11956 z m 10.135321,-0.0386 c -0.75473,-0.12798 -1.99911,-0.95458 -1.99911,-1.32795 0,-0.32131 2.054878,-2.62808 2.457343,-2.75857 0.421456,-0.13666 2.818147,1.72409 2.835303,2.20127 0.0075,0.20775 -0.325087,0.75249 -0.739015,1.21054 -0.788541,0.8726 -1.022712,0.93445 -2.554521,0.67471 z m -13.898184,-1.03895 c -0.996439,-0.76065 -1.653974,-1.67237 -1.206109,-1.67237 0.285019,0 2.704982,1.97008 2.704982,2.20211 0,0.3231 -0.710697,0.0719 -1.498873,-0.52974 z m 0.583152,-1.68152 c -0.780461,-0.60426 -1.418169,-1.19239 -1.417131,-1.30695 0.0011,-0.11456 0.490938,-0.69108 1.088669,-1.28116 0.597732,-0.59008 1.228697,-1.25588 1.402143,-1.47955 0.173448,-0.22367 0.503571,-0.40667 0.733609,-0.40667 0.532322,0 2.70623,1.9416 2.710759,2.42108 0.0041,0.43335 -2.315038,3.02434 -2.773833,3.099 -0.178858,0.0291 -0.963755,-0.44149 -1.744216,-1.04575 z m 8.26053,-0.86863 c -0.798676,-0.68005 -1.416943,-1.3217 -1.373926,-1.42588 0.199196,-0.48243 2.449207,-2.71515 2.737458,-2.71642 0.178478,-7.8e-4 0.931226,0.51582 1.672773,1.14801 1.112445,0.94839 1.324512,1.22286 1.212444,1.56922 -0.177278,0.54791 -2.187166,2.66153 -2.530908,2.66153 -0.146135,0 -0.919163,-0.55641 -1.717841,-1.23646 z m -11.947183,-2.03648 c -1.250605,-1.11641 -1.549014,-2.16928 -0.923414,-3.25805 0.436749,-0.76011 1.628909,-2.07736 1.879944,-2.07721 0.28019,1.7e-4 3.221346,2.43021 3.221346,2.66154 0,0.23992 -1.422769,1.87404 -2.405983,2.76338 -0.701909,0.63491 -0.975749,0.62105 -1.771893,-0.0897 z m 7.87158,-1.49072 c -0.747431,-0.64727 -1.358965,-1.28176 -1.358965,-1.40998 0,-0.20686 0.623906,-0.94068 2.040972,-2.40053 l 0.449104,-0.46267 1.514199,1.13708 c 0.878023,0.65935 1.514199,1.28083 1.514199,1.47922 0,0.37227 -2.2511,2.83375 -2.59155,2.83375 -0.114945,0 -0.820529,-0.52959 -1.567959,-1.17687 z m 7.745218,-0.39437 c -1.169443,-0.98812 -1.439184,-1.31481 -1.30892,-1.58524 0.325609,-0.67599 2.495428,-2.94106 2.817385,-2.94106 0.422817,0 3.186067,2.34463 3.175705,2.69459 -0.01172,0.39574 -2.413587,2.94526 -2.840819,3.01546 -0.232888,0.0383 -0.917094,-0.40111 -1.843351,-1.18375 z M -50.184148,170.52 c -0.729606,-0.62208 -1.326556,-1.27008 -1.326556,-1.44 0,-0.37286 2.503371,-2.62814 2.917248,-2.62814 0.405255,0 2.814708,2.13816 2.808086,2.49191 -0.003,0.15832 -0.480525,0.77061 -1.061245,1.36065 -0.580722,0.59004 -1.055856,1.13478 -1.055856,1.21054 0,0.0758 -0.214902,0.13737 -0.47756,0.13692 -0.30376,-5.2e-4 -0.96034,-0.41246 -1.804117,-1.13188 z m 8.164943,-0.44171 c -0.667584,-0.57003 -1.213788,-1.16705 -1.213788,-1.32672 0,-0.39669 2.286087,-2.83772 2.657597,-2.83772 0.398211,0 2.860877,1.95088 2.860877,2.26633 0,0.42601 -2.326136,2.93451 -2.721174,2.93451 -0.203348,0 -0.915929,-0.46638 -1.583512,-1.0364 z"
         id="path4724"
         sodipodi:nodetypes="cssssssscsssccssssscssssssssssscssssssssssssssssssssssssssccsscssssssssssssssssssscssssssssssssscssssccssscssssssssssssssssssssssss" />
      <path
         style="fill:#464562;stroke-width:0.195101"
         d="m -42.628492,203.43091 c -0.299865,-1.55655 -0.589756,-3.00607 -1.704989,-6.04081 -0.362043,-0.98518 -0.775957,-2.23607 -0.919804,-2.77976 -0.31356,-1.18511 -1.778118,-5.70446 -3.276819,-10.11164 -0.599425,-1.7627 -1.045295,-3.24258 -0.990821,-3.28861 0.05448,-0.046 0.623426,0.008 1.264336,0.12072 1.552291,0.27229 9.021856,0.19996 9.541613,-0.0924 0.295544,-0.16623 0.552987,-0.16083 1.16737,0.0245 0.433514,0.13076 1.284142,0.2413 1.890283,0.24563 1.076187,0.008 1.12575,-0.0153 2.10991,-0.9785 0.554308,-0.5425 1.07491,-0.98636 1.156893,-0.98636 0.358939,0 0.35505,0.75224 -0.02471,4.78077 -0.425676,4.51566 -0.443127,4.85258 -0.448284,8.65529 -0.0017,1.32368 -0.08808,2.84698 -0.191731,3.38512 0.792543,4.53565 -0.621837,6.41156 -9.573247,7.06605 z"
         id="path4720"
         sodipodi:nodetypes="csssscsscsssccc" />
      <path
         style="fill:#5f6c8e;stroke-width:0.195101"
         d="m -54.555376,225.92095 c -1.738852,-0.54651 -2.536511,-1.60188 -2.523643,-3.33899 0.0096,-1.29082 0.330833,-2.09984 1.331216,-3.35229 0.358938,-0.44938 0.610538,-0.9097 0.559114,-1.02294 -0.05143,-0.11323 -0.632319,-0.34938 -1.290875,-0.52479 -3.877524,-1.03276 -3.899886,-4.49588 -0.04749,-7.35368 2.212195,-1.64106 7.785181,-4.59489 12.232812,-6.48372 0.642053,-0.27267 1.246275,-0.58606 1.342715,-0.69642 0.114984,-0.13157 9.392595,-3.47237 9.336499,-3.29824 0,0 2.156863,-0.10505 0.337356,1.49107 0,0.047 -8.100795,3.07491 -8.947138,3.49484 -9.859323,4.89193 -10.799219,5.40591 -12.327976,6.74157 -2.213431,1.93385 -2.773583,3.03035 -1.892319,3.70423 2.024656,1.54818 8.665902,0.45135 15.077076,-2.49007 0.902431,-0.67525 9.589351,-4.96805 9.596482,-4.81366 0,1.03269 -2.289612,2.83772 -6.772114,5.33882 -4.016288,2.24097 -5.088706,2.754 -7.554693,3.61409 -5.419064,1.89006 -7.125418,2.8456 -8.169505,4.57485 -0.982403,1.62709 -0.09813,2.37011 2.808309,2.35974 5.424734,-0.0194 11.622732,-1.82952 16.292019,-4.75815 2.670944,-1.67525 3.327946,-1.20464 1.060352,0.75953 -1.745475,1.51191 -3.240939,2.41704 -5.423552,3.28261 -1.880446,0.74573 -6.007815,2.0837 -8.053367,2.61066 -1.51315,0.38981 -5.919401,0.49152 -6.971278,0.16092 z m 9.341393,-30.17694 c -0.07783,-0.0658 -0.1415,-0.316 -0.1415,-0.55609 0,-0.2401 -0.295005,-1.29221 -0.655567,-2.33804 -0.36056,-1.04583 -0.923551,-2.75262 -1.251089,-3.79289 -0.327536,-1.04026 -0.897586,-2.77911 -1.266774,-3.86412 -0.369188,-1.085 -0.816756,-2.41099 -0.994595,-2.94664 -0.253376,-0.76317 -0.610893,-1.22883 -1.652295,-2.15207 -2.97907,-2.64105 -3.920774,-4.53939 -3.935574,-7.93355 -0.0042,-0.95364 0.05149,-1.86392 0.123667,-2.02284 0.118775,-0.26153 0.156555,-0.25968 0.398145,0.0195 0.242344,0.28004 0.298654,0.25658 0.611644,-0.25483 0.422351,-0.6901 0.425763,-0.76042 0.0369,-0.76042 -0.169305,0 -0.405181,0.14123 -0.524168,0.31385 -0.348407,0.50543 -0.287351,-0.10587 0.108657,-1.08789 0.485976,-1.20512 2.785063,-3.28255 3.223141,-2.91239 0.07079,0.0598 -0.367197,0.5084 -0.9733,0.99687 -1.064002,0.85749 -1.437607,1.61353 -0.797339,1.61353 0.33352,0 2.577382,-2.06361 2.963797,-2.7257 0.402922,-0.69039 3.735754,-2.00791 3.735754,-1.47681 0,0.0559 -0.23878,0.36615 -0.530623,0.68945 -0.291842,0.3233 -0.530622,0.71059 -0.530622,0.86065 0,0.36339 2.209003,2.29373 2.624843,2.29373 0.348156,0 2.893631,-2.38721 2.893631,-2.71372 0,-0.10657 -0.286536,-0.49945 -0.636747,-0.87307 -0.722667,-0.77096 -0.780108,-0.99118 -0.29922,-1.1471 0.380671,-0.12343 0.622187,-0.0335 1.305304,0.48602 0.400129,0.3043 0.559864,0.3291 1.008182,0.1565 0.292998,-0.1128 0.532722,-0.32787 0.532722,-0.47794 0,-0.15007 0.172769,-0.27285 0.383931,-0.27285 0.428183,0 1.3591,0.5233 0.946938,0.53231 -0.143548,0.003 -0.464876,0.34338 -0.714061,0.75608 l -0.453062,0.75038 1.396004,1.14532 c 1.002847,0.82276 1.483574,1.10388 1.706951,0.99818 0.536657,-0.25394 1.651268,-1.69172 1.525742,-1.96812 -0.0828,-0.18231 0.07665,-0.14575 0.515317,0.11818 0.608989,0.3664 0.825897,0.79943 0.463671,0.92566 -0.222372,0.0775 -1.526451,1.6919 -1.526451,1.8897 0,0.0832 0.760499,0.79004 1.689995,1.57082 1.665671,1.39914 1.696222,1.41482 2.12249,1.08886 0.270957,-0.20719 0.432495,-0.55477 0.432495,-0.9306 0,-0.77322 0.254245,-0.76226 0.701519,0.0303 0.356103,0.63097 0.451123,1.05694 0.674485,3.02372 l 0.119637,1.05345 -0.755206,-0.56027 c -1.180798,-0.87601 -1.508434,-0.76903 -3.018703,0.98561 -1.056936,1.22795 -1.281939,1.60229 -1.11834,1.86058 0.112645,0.17785 0.840532,0.79495 1.617527,1.37134 l 1.412716,1.04799 -0.125369,1.79476 c -0.06895,0.98712 -0.282567,3.40882 -0.474695,5.38155 -0.142809,0.83518 -1.333195,8.35431 -0.608632,3.8558 0.299398,-2.23635 0.895175,-9.57064 0.795303,-9.79055 -0.181923,-0.40057 -0.350328,-0.31357 -1.420606,0.73391 -0.98416,0.9632 -1.033723,0.98618 -2.10991,0.9785 -0.606141,-0.004 -1.456769,-0.11487 -1.890283,-0.24563 -0.614383,-0.18533 -0.871826,-0.19073 -1.16737,-0.0245 -0.519757,0.29235 -7.989322,0.36468 -9.541613,0.0924 -0.64091,-0.11242 -1.20986,-0.16674 -1.264336,-0.12072 -0.05447,0.046 0.391396,1.52591 0.990821,3.28861 2.314019,6.80476 3.674832,11.18133 3.517857,11.31397 -0.03313,0.028 -0.123913,-0.003 -0.201736,-0.0687 z m 3.487319,-14.71474 c 0.712117,-0.35544 0.93968,-0.79727 0.646179,-1.25464 -0.350535,-0.54624 -2.794111,-2.41135 -3.0642,-2.33881 -0.140622,0.0378 -0.800926,0.66872 -1.467343,1.40211 -1.119665,1.2322 -1.489101,2.04042 -1.087698,2.37959 0.07782,0.0658 1.089841,0.11956 2.248927,0.11956 1.610305,0 2.252906,-0.0726 2.724135,-0.30781 z m 7.71678,-0.52501 c 0.413928,-0.45805 0.746484,-1.00279 0.739015,-1.21054 -0.01715,-0.47718 -2.413847,-2.33793 -2.835303,-2.20127 -0.402465,0.13049 -2.457343,2.43726 -2.457343,2.75857 0,0.37337 1.24438,1.19997 1.99911,1.32795 1.531809,0.25974 1.76598,0.19789 2.554521,-0.67471 z m -14.953832,0.1655 c 0,-0.23203 -2.419963,-2.20211 -2.704982,-2.20211 -0.447865,0 0.20967,0.91172 1.206109,1.67237 0.788176,0.60166 1.498873,0.85284 1.498873,0.52974 z m 2.379702,-2.56213 c 0.674306,-0.73904 1.224488,-1.50511 1.222626,-1.70238 -0.0045,-0.47948 -2.178437,-2.42108 -2.710759,-2.42108 -0.230038,0 -0.560161,0.183 -0.733609,0.40667 -0.173446,0.22367 -0.804411,0.88947 -1.402143,1.47955 -0.597731,0.59008 -1.087633,1.1666 -1.088669,1.28116 -0.0029,0.32697 2.798397,2.41176 3.161347,2.3527 0.178858,-0.0291 0.8769,-0.65759 1.551207,-1.39662 z m 8.013342,-0.40217 c 1.582238,-1.66573 1.581911,-1.75109 -0.01193,-3.10988 -0.741547,-0.63219 -1.494295,-1.14879 -1.672773,-1.14801 -0.288253,10e-4 -2.538264,2.23399 -2.73746,2.71642 -0.09647,0.23365 2.723961,2.66234 3.091767,2.66234 0.146138,0 0.744814,-0.50439 1.330394,-1.12087 z m -13.223525,-2.06241 c 0.983214,-0.88934 2.405983,-2.52346 2.405983,-2.76338 0,-0.23133 -2.941156,-2.66137 -3.221346,-2.66154 -0.251035,-1.5e-4 -1.443195,1.3171 -1.879944,2.07721 -0.6256,1.08877 -0.327191,2.14164 0.923414,3.25805 0.796144,0.71071 1.069984,0.72457 1.771893,0.0897 z m 9.067919,-1.64932 c 0.655202,-0.68519 1.191277,-1.39977 1.191277,-1.58794 0,-0.19839 -0.636176,-0.81987 -1.514199,-1.47922 l -1.514199,-1.13708 -0.449104,0.46267 c -1.417066,1.45985 -2.040972,2.19367 -2.040972,2.40053 0,0.27248 2.618628,2.58685 2.926924,2.58685 0.114948,0 0.745071,-0.56061 1.400273,-1.24581 z m 8.222006,-0.54758 c 0.677225,-0.73978 1.234842,-1.46408 1.23915,-1.60956 0.01036,-0.34996 -2.752888,-2.69459 -3.175705,-2.69459 -0.321957,0 -2.491776,2.26507 -2.817385,2.94106 -0.130264,0.27043 0.139477,0.59712 1.30892,1.58524 0.926257,0.78264 1.610463,1.22201 1.843351,1.18375 0.203695,-0.0335 0.924446,-0.66613 1.601669,-1.4059 z m -13.398199,-1.93114 c 0,-0.0758 0.475134,-0.6205 1.055856,-1.21054 0.58072,-0.59004 1.05828,-1.20233 1.061245,-1.36065 0.0066,-0.35375 -2.402831,-2.49191 -2.808086,-2.49191 -0.413877,0 -2.917248,2.25528 -2.917248,2.62814 0,0.46733 2.560606,2.57089 3.130673,2.57188 0.262658,4.4e-4 0.47756,-0.0612 0.47756,-0.13692 z m 9.012229,-1.74358 c 0.646648,-0.73883 1.175723,-1.45486 1.175723,-1.5912 0,-0.31545 -2.462666,-2.26633 -2.860877,-2.26633 -0.37151,0 -2.657597,2.44103 -2.657597,2.83772 0,0.39211 2.333152,2.36312 2.7973,2.36312 0.213917,0 0.865195,-0.5661 1.545451,-1.34331 z m 1.971657,-5.75239 c -1.102808,-0.48505 -1.227521,-0.6159 -0.587034,-0.6159 0.231634,0 0.733072,0.23975 1.114307,0.53277 0.838902,0.64477 0.773206,0.65513 -0.527273,0.0831 z"
         id="path4722"
         sodipodi:nodetypes="ssssssssccsssccssssssssssssssssssssssssssssssssssssssscscssssssssssscsssscsccsscsssssssssssssssssssssssssssssscsssscsssssssssssssscsssssssssssssssssssssssssssss" />
    </g>
    <path
       style="fill:#99c45a;fill-opacity:1;stroke:none;stroke-width:0.0558947;stroke-opacity:1"
       d="m 80.561798,143.36884 c -0.619181,-0.88335 -2.054822,-3.06751 -2.103043,-3.19952 -0.02936,-0.0803 -0.01768,-0.0974 -0.707332,1.03405 -1.233146,2.02311 -1.534451,2.50773 -1.549665,2.49252 -0.01373,-0.0137 0.494658,-3.36938 0.578156,-3.81639 l 0.03322,-0.17803 -0.969726,0.39096 c -1.238425,0.4993 -3.024151,1.1712 -3.048369,1.14698 -0.01029,-0.0104 0.218103,-0.2227 0.507444,-0.47211 0.289332,-0.24942 0.824101,-0.72281 1.188371,-1.05197 0.36427,-0.32915 0.819513,-0.72459 1.011647,-0.87876 0.357411,-0.28679 0.417103,-0.37204 0.260469,-0.37204 -0.114714,0 -1.878444,-0.4408 -2.954478,-0.73839 -0.618999,-0.17119 -0.807284,-0.24283 -0.726632,-0.27648 0.05986,-0.0249 0.936274,-0.18358 1.947534,-0.35247 1.01126,-0.1689 1.847943,-0.31637 1.859283,-0.3277 0.01135,-0.0113 -0.388463,-0.31952 -0.888447,-0.68483 -0.852036,-0.62254 -2.285227,-1.74864 -2.725652,-2.14163 -0.182883,-0.16319 -0.186526,-0.17275 -0.05591,-0.14672 1.519444,0.30287 3.098342,0.71416 3.988048,1.03886 0.246974,0.0901 0.455653,0.16388 0.463728,0.16388 0.0082,0 -0.08206,-0.21046 -0.200357,-0.46768 -0.52144,-1.13402 -1.285495,-3.1876 -1.212959,-3.26015 0.05362,-0.0536 0.628176,0.47894 1.807083,1.67482 l 1.128531,1.1448 0.118323,-0.39829 c 0.454972,-1.53157 0.867791,-2.64888 1.374206,-3.71935 0.321954,-0.68053 0.328951,-0.69002 0.371227,-0.50285 0.02369,0.10491 0.0148,1.16639 -0.01982,2.35885 -0.03462,1.19245 -0.05198,2.17908 -0.03849,2.19249 0.01341,0.0134 0.426487,-0.35856 0.917928,-0.82662 1.097719,-1.04548 1.719111,-1.60393 2.230008,-2.00406 0.472405,-0.36999 1.119296,-0.83122 1.165807,-0.83122 0.01858,0 -0.02491,0.10689 -0.09661,0.23754 -0.07171,0.13066 -0.321435,0.60227 -0.555006,1.04803 -0.233563,0.44577 -0.801989,1.48875 -1.263161,2.31774 -0.461181,0.829 -0.833073,1.5127 -0.826437,1.51933 0.0065,0.006 0.426701,-0.0498 0.93347,-0.12526 0.961354,-0.14325 2.794265,-0.24644 2.793409,-0.15723 -8.22e-4,0.11986 -2.125277,1.42042 -3.198187,1.95818 -0.237534,0.11905 -0.432464,0.2301 -0.433187,0.24679 -6.34e-4,0.0167 0.171329,0.23438 0.382327,0.48379 0.469223,0.55462 0.965852,1.24278 1.312944,1.81932 0.361531,0.60051 1.004706,1.83103 0.973409,1.86232 -0.05205,0.0521 -2.335594,-1.47648 -3.354698,-2.24545 -0.14602,-0.11019 -0.265198,-0.17906 -0.264828,-0.15306 4.28e-4,0.026 0.124137,1.19163 0.275041,2.59028 0.150894,1.39863 0.268173,2.54918 0.260616,2.55673 -0.0074,0.007 -0.317727,-0.41993 -0.689257,-0.95 z"
       id="path4049-3"
       sodipodi:nodetypes="ssssscsssssssssssssssssscssssssssssssscscsssscssss" />
  </g>
</svg>
